<?xml version="1.0" encoding="UTF-8" standalone="no"?>
<!-- Created with Inkscape (http://www.inkscape.org/) -->

<svg
   xmlns:dc="http://purl.org/dc/elements/1.1/"
   xmlns:cc="http://creativecommons.org/ns#"
   xmlns:rdf="http://www.w3.org/1999/02/22-rdf-syntax-ns#"
   xmlns:svg="http://www.w3.org/2000/svg"
   xmlns="http://www.w3.org/2000/svg"
   xmlns:xlink="http://www.w3.org/1999/xlink"
   xmlns:sodipodi="http://sodipodi.sourceforge.net/DTD/sodipodi-0.dtd"
   xmlns:inkscape="http://www.inkscape.org/namespaces/inkscape"
   width="150"
   height="50"
   id="svg2"
   version="1.1"
   inkscape:version="0.48.2 r9819"
   sodipodi:docname="hacktoon_tileset.svg"
   inkscape:export-filename="/home/karlisson/dev/hacktoon/hacktoon.com/editor/tilesets/hacktoon.png"
   inkscape:export-xdpi="89.989998"
   inkscape:export-ydpi="89.989998">
  <defs
     id="defs4" />
  <sodipodi:namedview
     id="base"
     pagecolor="#ffffff"
     bordercolor="#666666"
     borderopacity="1.0"
     inkscape:pageopacity="0.0"
     inkscape:pageshadow="2"
     inkscape:zoom="1"
     inkscape:cx="429.59274"
     inkscape:cy="44.032502"
     inkscape:document-units="px"
     inkscape:current-layer="layer2"
     showgrid="false"
     inkscape:window-width="1280"
     inkscape:window-height="748"
     inkscape:window-x="-4"
     inkscape:window-y="764"
     inkscape:window-maximized="1"
     showborder="true"
     inkscape:showpageshadow="false" />
  <metadata
     id="metadata7">
    <rdf:RDF>
      <cc:Work
         rdf:about="">
        <dc:format>image/svg+xml</dc:format>
        <dc:type
           rdf:resource="http://purl.org/dc/dcmitype/StillImage" />
        <dc:title></dc:title>
      </cc:Work>
    </rdf:RDF>
  </metadata>
  <g
     inkscape:label="fundo"
     inkscape:groupmode="layer"
     id="layer1"
     transform="translate(0,-1002.3622)"
     style="display:none"
     sodipodi:insensitive="true">
    <g
       id="g3034"
       transform="translate(-17.172598,539.44441)">
      <rect
         y="162.91777"
         x="67.1726"
         height="50"
         width="50"
         id="rect2985"
         style="color:#000000;fill:#ececec;fill-opacity:1;fill-rule:evenodd;stroke:none;stroke-width:1px;marker:none;visibility:visible;display:inline;overflow:visible;enable-background:accumulate" />
      <rect
         style="color:#000000;fill:#ececec;fill-opacity:1;fill-rule:evenodd;stroke:none;stroke-width:1px;marker:none;visibility:visible;display:inline;overflow:visible;enable-background:accumulate"
         id="rect2987"
         width="50"
         height="50"
         x="67.1726"
         y="62.917767" />
      <rect
         style="color:#000000;fill:#999999;fill-opacity:1;fill-rule:evenodd;stroke:none;stroke-width:1px;marker:none;visibility:visible;display:inline;overflow:visible;enable-background:accumulate"
         id="rect2989"
         width="50"
         height="50"
         x="67.1726"
         y="112.91776" />
      <rect
         y="12.917766"
         x="67.1726"
         height="50"
         width="50"
         id="rect2991"
         style="color:#000000;fill:#999999;fill-opacity:1;fill-rule:evenodd;stroke:none;stroke-width:1px;marker:none;visibility:visible;display:inline;overflow:visible;enable-background:accumulate" />
      <rect
         style="color:#000000;fill:#999999;fill-opacity:1;fill-rule:evenodd;stroke:none;stroke-width:1px;marker:none;visibility:visible;display:inline;overflow:visible;enable-background:accumulate"
         id="rect3007"
         width="50"
         height="50"
         x="17.172598"
         y="162.91777" />
      <rect
         y="62.917767"
         x="17.172598"
         height="50"
         width="50"
         id="rect3009"
         style="color:#000000;fill:#999999;fill-opacity:1;fill-rule:evenodd;stroke:none;stroke-width:1px;marker:none;visibility:visible;display:inline;overflow:visible;enable-background:accumulate" />
      <rect
         y="112.91776"
         x="17.172598"
         height="50"
         width="50"
         id="rect3011"
         style="color:#000000;fill:#ececec;fill-opacity:1;fill-rule:evenodd;stroke:none;stroke-width:1px;marker:none;visibility:visible;display:inline;overflow:visible;enable-background:accumulate" />
      <rect
         style="color:#000000;fill:#ececec;fill-opacity:1;fill-rule:evenodd;stroke:none;stroke-width:1px;marker:none;visibility:visible;display:inline;overflow:visible;enable-background:accumulate"
         id="rect3013"
         width="50"
         height="50"
         x="17.172598"
         y="12.917766" />
      <rect
         style="color:#000000;fill:#ececec;fill-opacity:1;fill-rule:evenodd;stroke:none;stroke-width:1px;marker:none;visibility:visible;display:inline;overflow:visible;enable-background:accumulate"
         id="rect2997"
         width="50"
         height="50"
         x="117.1726"
         y="12.917766" />
      <rect
         style="color:#000000;fill:#999999;fill-opacity:1;fill-rule:evenodd;stroke:none;stroke-width:1px;marker:none;visibility:visible;display:inline;overflow:visible;enable-background:accumulate"
         id="rect2999"
         width="50"
         height="50"
         x="117.1726"
         y="62.917767" />
    </g>
  </g>
  <g
     inkscape:groupmode="layer"
     id="layer2"
     inkscape:label="sprites"
     transform="translate(0,-450)">
    <path
       style="fill:#5d3920;fill-opacity:1;stroke:none"
       d="m 70.3851,482.92831 c 1.21216,4.53183 -2.70963,7.3891 -5.78699,9.69712 -0.9286,0.69645 -2.27208,1.87686 -3.44091,1.87686 -0.19891,0 -3.91013,0.87902 -3.91013,0.78202 0,-0.16814 1.33268,0.13142 1.40765,0.15641 0.98208,0.32736 2.74273,0 3.75372,0 3.03121,0 5.98595,-0.79621 8.75868,-1.72046 0.33179,-0.1106 1.18573,-0.71651 0.93844,-0.46921 -1.19423,1.19422 -2.47734,3.09037 -3.44092,4.53574 -0.15394,0.23091 -1.53327,1.41791 -1.09483,1.56406 2.9479,0.98263 5.22444,-2.53402 7.35104,-3.59732 0.33592,-0.16796 3.74403,2.10662 5.16137,2.81529 1.53063,0.76532 -1.09544,-3.75372 -0.31282,-3.75372 0.0535,0 0.5419,0.44131 0.62562,0.46921 2.33057,0.77686 4.0446,2.18967 6.56902,2.18967 0.88629,0 1.77259,0 2.65889,0 0.20854,0 0.62562,-0.20854 0.62562,0 0,0.92824 -1.53331,-1.06409 -2.18967,-1.72045 -1.4148,-1.4148 -2.94583,-2.69828 -4.06654,-4.37934 -1.32127,-1.98191 -2.49394,-11.87826 -2.97169,-12.35601 -0.41125,-0.41124 -1.98837,-0.1564 -2.50249,-0.1564 -3.32242,0 -7.37601,0.28128 -8.13306,4.06653 z"
       id="path3066"
       inkscape:connector-curvature="0" />
    <path
       style="fill:#008000;stroke:none"
       d="m 57.09067,469.79028 c -10.39068,-3.61994 0.65324,-15.68367 6.72541,-8.44587 -6.8561,-9.7001 10.53073,-15.13736 12.10584,-5.33467 5.44756,-13.17707 23.95013,-0.84322 13.70101,7.05512 10.67506,3.45649 12.79155,13.25073 1.56405,14.54568 9.16357,5.10998 -3.37547,11.36269 -7.50745,7.50744 -2.34878,0 -3.0305,-4.44774 -4.37934,-4.22294 -0.78694,0.13116 -1.21427,1.01009 -1.87686,1.40765 -3.00036,1.80022 -9.60186,5.01633 -13.13803,2.65889 -1.06756,-0.71171 -1.74123,-5.42897 -1.87686,-5.47418 -0.5424,-0.1808 -4.40305,2.33422 -7.82026,0.62562 -3.26473,-1.63237 -4.4226,-8.03323 -0.78202,-9.85352 1.36884,-0.68442 2.58603,-0.32952 4.06653,-0.62562"
       id="path3064"
       inkscape:connector-curvature="0"
       sodipodi:nodetypes="ccccccssscssc" />
    <path
       style="fill:#006100;fill-opacity:1;stroke:none"
       d="m 54.16265,470.12775 c -0.11888,0.0454 -0.23691,0.0827 -0.35787,0.14314 -3.64057,1.82029 -2.47743,8.20882 0.7873,9.84119 3.4172,1.7086 7.25898,-0.78917 7.80137,-0.60837 0.13564,0.0452 0.82911,4.76357 1.89667,5.47528 3.53617,2.35745 10.13314,-0.88375 13.13351,-2.68396 0.66259,-0.39756 1.07393,-1.2645 1.86087,-1.39566 1.34884,-0.22481 2.05291,4.22276 4.4017,4.22276 4.13198,3.85525 16.67866,-2.4051 7.51509,-7.51508 3.04564,-0.35128 5.08525,-1.34222 6.26257,-2.64818 -1.35826,0.90551 -3.0394,2.18376 -4.86692,1.57459 -1.38785,-0.46262 -2.83768,-1.88608 -2.86289,-1.86088 -0.80593,0.80593 1.21326,4.90444 -2.43345,6.7278 -1.84315,0.92157 -3.26922,-1.67151 -3.86491,-2.86289 -0.13578,-0.27157 -1.14515,-2.40804 -1.14515,-1.71774 0,3.02661 -3.14082,2.50921 -5.01006,1.57459 -0.96229,-0.48114 -0.74239,-2.1605 -1.57459,-2.5766 -0.0449,-0.0224 -1.68977,1.60367 -1.86088,1.71773 -1.82486,1.21658 -4.3876,0.74066 -6.15521,-0.14314 -1.9245,-0.96225 -0.45926,-5.23968 -1.14516,-5.58264 -0.0747,-0.0374 -2.22838,1.75835 -2.43345,1.86088 -0.63173,0.31586 -2.70098,-0.0249 -3.29233,-0.14314 -3.1704,-0.63408 -4.89333,-0.54674 -6.65621,-3.39968 z m 44.51794,1.46723 c -0.14446,0.63588 -0.17836,1.36869 -0.35787,2.03981 0.26984,-0.64285 0.40097,-1.3329 0.35787,-2.03981 z"
       id="path3068"
       inkscape:connector-curvature="0" />
    <path
       style="fill:#cccccc;stroke:none"
       d="m 102.23841,483.6076 c 1.58344,-4.29632 3.37098,-8.16072 6.78547,-11.5752 4.06475,-4.06476 5.70214,-5.5453 10.57734,-7.9829 2.67594,-1.33797 12.42677,3.61894 14.76836,4.78974 1.89313,0.94656 4.08152,3.71887 5.98718,4.98931 0.8303,0.55353 2.08053,0.76833 2.59444,1.79615 0.46905,0.93811 0.54388,2.2852 0.99786,3.19316 1.02311,2.04621 4.1953,5.88098 2.79402,7.9829 -0.48503,0.72754 -3.51025,1.5027 -4.3906,1.79615 -2.40809,0.8027 -5.05618,2.12895 -7.18461,3.19316 -3.25734,1.62868 -11.28175,-1.15049 -14.16964,-2.59444 -2.54095,-1.27047 -13.16237,1.20215 -16.36495,-0.39914 -1.55895,-0.77948 -2.7275,-3.52572 -2.39487,-5.18889 z"
       id="path3841"
       inkscape:connector-curvature="0" />
    <path
       style="fill:#808080;stroke:none"
       d="m 120.19694,463.87575 c -0.21898,0.0369 -0.43251,0.0928 -0.59975,0.17639 -4.8752,2.4376 -6.51918,3.90848 -10.58393,7.97323 -3.41449,3.41449 -5.19028,7.27544 -6.77372,11.57176 -0.33263,1.66317 0.84007,4.40665 2.39903,5.18613 3.20258,1.60129 13.82886,-0.84712 16.36981,0.42336 1.18758,0.59379 3.23225,1.40022 5.46836,2.04622 0.14311,-0.0869 0.26876,-0.18194 0.31752,-0.24695 0.12762,-0.17016 -3.95832,-3.34443 -4.40997,-4.0219 -0.38578,-0.57867 -0.34121,-2.64019 -0.98783,-2.9635 -2.02472,-1.01236 -4.45543,-0.97291 -5.57421,-3.21046 -0.85707,-1.71415 1.49933,-3.5281 0.77616,-4.97444 -0.45294,-0.90589 -4.53484,-0.70281 -3.38686,-2.99878 1.6994,-3.39881 4.48236,-6.10842 7.05595,-8.96106 -0.0223,0.003 -0.0487,-0.004 -0.0706,0 z"
       id="path3843"
       inkscape:connector-curvature="0" />
    <path
       inkscape:connector-curvature="0"
       id="path3001"
       d="m 107.48841,491.31138 c 0.28615,-0.77641 0.60919,-1.47477 1.22624,-2.09182 0.73456,-0.73456 1.03046,-1.00212 1.91148,-1.44263 0.48359,-0.24179 2.24571,0.654 2.66887,0.86558 0.34212,0.17106 0.73759,0.67206 1.08197,0.90164 0.15005,0.10004 0.37599,0.13885 0.46886,0.3246 0.0848,0.16953 0.0983,0.41297 0.18033,0.57705 0.61797,1.81463 -0.54173,1.83295 -2.0244,2.15677 -0.58865,0.29433 -1.60128,-0.0204 -2.12317,-0.28135 -0.45918,-0.2296 -2.37864,0.21724 -2.95739,-0.0721 -0.28173,-0.14086 -0.4929,-0.63715 -0.43279,-0.93771 z"
       style="fill:#cccccc;stroke:none"
       sodipodi:nodetypes="csssscccssc" />
    <path
       inkscape:connector-curvature="0"
       id="path3003"
       d="m 110.73379,487.74553 c -0.0396,0.007 -0.0782,0.0168 -0.10839,0.0319 -0.88102,0.44051 -1.17811,0.70632 -1.91267,1.44088 -0.61705,0.61705 -0.93796,1.31479 -1.22412,2.0912 -0.0601,0.30056 0.15182,0.79635 0.43355,0.93721 0.57875,0.28938 2.49908,-0.15309 2.95827,0.0765 0.21461,0.10731 0.58411,0.25304 0.98821,0.36978 0.0259,-0.0157 0.0486,-0.0329 0.0574,-0.0446 0.0231,-0.0307 -0.71532,-0.60438 -0.79694,-0.72681 -0.0697,-0.10458 -0.0617,-0.47713 -0.17852,-0.53555 -0.3659,-0.18295 -0.80516,-0.17582 -1.00734,-0.58018 -0.15489,-0.30978 0.27095,-0.63758 0.14026,-0.89896 -0.0819,-0.16371 -0.81952,-0.12701 -0.61206,-0.54192 0.30711,-0.61422 0.81003,-1.10389 1.27512,-1.6194 -0.004,5.7e-4 -0.009,-6.5e-4 -0.0128,0 z"
       style="fill:#808080;stroke:none" />
    <rect
       style="color:#000000;fill:#ade66e;fill-opacity:1;fill-rule:evenodd;stroke:none;stroke-width:1px;marker:none;visibility:visible;display:inline;overflow:visible;enable-background:accumulate"
       id="rect3013-2"
       width="50"
       height="50"
       x="-360"
       y="100" />
    <rect
       y="100"
       x="-310"
       height="50"
       width="50"
       id="rect3014"
       style="color:#000000;fill:#8bdc31;fill-opacity:1;fill-rule:evenodd;stroke:none;stroke-width:1px;marker:none;visibility:visible;display:inline;overflow:visible;enable-background:accumulate" />
    <rect
       style="color:#000000;fill:#ade66e;fill-opacity:1;fill-rule:evenodd;stroke:none;stroke-width:1px;marker:none;visibility:visible;display:inline;overflow:visible;enable-background:accumulate"
       id="rect3016"
       width="50"
       height="50"
       x="-260"
       y="100" />
    <rect
       y="150"
       x="-360"
       height="50"
       width="50"
       id="rect3018"
       style="color:#000000;fill:#8bdc31;fill-opacity:1;fill-rule:evenodd;stroke:none;stroke-width:1px;marker:none;visibility:visible;display:inline;overflow:visible;enable-background:accumulate" />
    <rect
       style="color:#000000;fill:#ade66e;fill-opacity:1;fill-rule:evenodd;stroke:none;stroke-width:1px;marker:none;visibility:visible;display:inline;overflow:visible;enable-background:accumulate"
       id="rect3020"
       width="50"
       height="50"
       x="-310"
       y="150" />
    <rect
       y="150"
       x="-260"
       height="50"
       width="50"
       id="rect3022"
       style="color:#000000;fill:#8bdc31;fill-opacity:1;fill-rule:evenodd;stroke:none;stroke-width:1px;marker:none;visibility:visible;display:inline;overflow:visible;enable-background:accumulate" />
    <rect
       style="color:#000000;fill:#ade66e;fill-opacity:1;fill-rule:evenodd;stroke:none;stroke-width:1px;marker:none;visibility:visible;display:inline;overflow:visible;enable-background:accumulate"
       id="rect3024"
       width="50"
       height="50"
       x="-360"
       y="200" />
    <rect
       y="200"
       x="-310"
       height="50"
       width="50"
       id="rect3026"
       style="color:#000000;fill:#8bdc31;fill-opacity:1;fill-rule:evenodd;stroke:none;stroke-width:1px;marker:none;visibility:visible;display:inline;overflow:visible;enable-background:accumulate" />
    <rect
       style="color:#000000;fill:#ade66e;fill-opacity:1;fill-rule:evenodd;stroke:none;stroke-width:1px;marker:none;visibility:visible;display:inline;overflow:visible;enable-background:accumulate"
       id="rect3028"
       width="50"
       height="50"
       x="-260"
       y="200" />
    <rect
       y="250"
       x="-360"
       height="50"
       width="50"
       id="rect3030"
       style="color:#000000;fill:#8bdc31;fill-opacity:1;fill-rule:evenodd;stroke:none;stroke-width:1px;marker:none;visibility:visible;display:inline;overflow:visible;enable-background:accumulate" />
    <rect
       style="color:#000000;fill:#ade66e;fill-opacity:1;fill-rule:evenodd;stroke:none;stroke-width:1px;marker:none;visibility:visible;display:inline;overflow:visible;enable-background:accumulate"
       id="rect3032"
       width="50"
       height="50"
       x="-310"
       y="250" />
    <rect
       y="250"
       x="-260"
       height="50"
       width="50"
       id="rect3034"
       style="color:#000000;fill:#8bdc31;fill-opacity:1;fill-rule:evenodd;stroke:none;stroke-width:1px;marker:none;visibility:visible;display:inline;overflow:visible;enable-background:accumulate" />
    <rect
       y="300"
       x="-360"
       height="50"
       width="50"
       id="rect3052"
       style="color:#000000;fill:#c83737;fill-opacity:1;fill-rule:evenodd;stroke:none;stroke-width:1px;marker:none;visibility:visible;display:inline;overflow:visible;enable-background:accumulate" />
    <rect
       style="color:#000000;fill:#c83737;fill-opacity:1;fill-rule:evenodd;stroke:none;stroke-width:1px;marker:none;visibility:visible;display:inline;overflow:visible;enable-background:accumulate"
       id="rect3054"
       width="50"
       height="50"
       x="-310"
       y="300" />
    <rect
       y="300"
       x="-260"
       height="50"
       width="50"
       id="rect3056"
       style="color:#000000;fill:#c83737;fill-opacity:1;fill-rule:evenodd;stroke:none;stroke-width:1px;marker:none;visibility:visible;display:inline;overflow:visible;enable-background:accumulate" />
    <rect
       style="color:#000000;fill:#c83737;fill-opacity:1;fill-rule:evenodd;stroke:none;stroke-width:1px;marker:none;visibility:visible;display:inline;overflow:visible;enable-background:accumulate"
       id="rect3058"
       width="50"
       height="50"
       x="-360"
       y="350" />
    <rect
       y="350"
       x="-310"
       height="50"
       width="50"
       id="rect3060"
       style="color:#000000;fill:#c83737;fill-opacity:1;fill-rule:evenodd;stroke:none;stroke-width:1px;marker:none;visibility:visible;display:inline;overflow:visible;enable-background:accumulate" />
    <rect
       style="color:#000000;fill:#c83737;fill-opacity:1;fill-rule:evenodd;stroke:none;stroke-width:1px;marker:none;visibility:visible;display:inline;overflow:visible;enable-background:accumulate"
       id="rect3062"
       width="50"
       height="50"
       x="-260"
       y="350" />
    <rect
       y="400"
       x="-360"
       height="50"
       width="50"
       id="rect3064"
       style="color:#000000;fill:#c83737;fill-opacity:1;fill-rule:evenodd;stroke:none;stroke-width:1px;marker:none;visibility:visible;display:inline;overflow:visible;enable-background:accumulate" />
    <rect
       style="color:#000000;fill:#c83737;fill-opacity:1;fill-rule:evenodd;stroke:none;stroke-width:1px;marker:none;visibility:visible;display:inline;overflow:visible;enable-background:accumulate"
       id="rect3066"
       width="50"
       height="50"
       x="-310"
       y="400" />
    <rect
       y="400"
       x="-260"
       height="50"
       width="50"
       id="rect3068"
       style="color:#000000;fill:#c83737;fill-opacity:1;fill-rule:evenodd;stroke:none;stroke-width:1px;marker:none;visibility:visible;display:inline;overflow:visible;enable-background:accumulate" />
    <rect
       style="color:#000000;fill:#c83737;fill-opacity:1;fill-rule:evenodd;stroke:none;stroke-width:1px;marker:none;visibility:visible;display:inline;overflow:visible;enable-background:accumulate"
       id="rect3070"
       width="50"
       height="50"
       x="-360"
       y="450" />
    <rect
       y="450"
       x="-310"
       height="50"
       width="50"
       id="rect3072"
       style="color:#000000;fill:#c83737;fill-opacity:1;fill-rule:evenodd;stroke:none;stroke-width:1px;marker:none;visibility:visible;display:inline;overflow:visible;enable-background:accumulate" />
    <rect
       style="color:#000000;fill:#c83737;fill-opacity:1;fill-rule:evenodd;stroke:none;stroke-width:1px;marker:none;visibility:visible;display:inline;overflow:visible;enable-background:accumulate"
       id="rect3074"
       width="50"
       height="50"
       x="-260"
       y="450" />
    <rect
       y="100"
       x="-210"
       height="50"
       width="50"
       id="rect3090"
       style="color:#000000;fill:#c83737;fill-opacity:1;fill-rule:evenodd;stroke:none;stroke-width:1px;marker:none;visibility:visible;display:inline;overflow:visible;enable-background:accumulate" />
    <rect
       style="color:#000000;fill:#c83737;fill-opacity:1;fill-rule:evenodd;stroke:none;stroke-width:1px;marker:none;visibility:visible;display:inline;overflow:visible;enable-background:accumulate"
       id="rect3092"
       width="50"
       height="50"
       x="-160"
       y="100" />
    <rect
       y="100"
       x="-110"
       height="50"
       width="50"
       id="rect3094"
       style="color:#000000;fill:#c83737;fill-opacity:1;fill-rule:evenodd;stroke:none;stroke-width:1px;marker:none;visibility:visible;display:inline;overflow:visible;enable-background:accumulate" />
    <rect
       style="color:#000000;fill:#c83737;fill-opacity:1;fill-rule:evenodd;stroke:none;stroke-width:1px;marker:none;visibility:visible;display:inline;overflow:visible;enable-background:accumulate"
       id="rect3096"
       width="50"
       height="50"
       x="-210"
       y="150" />
    <rect
       y="150"
       x="-160"
       height="50"
       width="50"
       id="rect3098"
       style="color:#000000;fill:#c83737;fill-opacity:1;fill-rule:evenodd;stroke:none;stroke-width:1px;marker:none;visibility:visible;display:inline;overflow:visible;enable-background:accumulate" />
    <rect
       style="color:#000000;fill:#c83737;fill-opacity:1;fill-rule:evenodd;stroke:none;stroke-width:1px;marker:none;visibility:visible;display:inline;overflow:visible;enable-background:accumulate"
       id="rect3100"
       width="50"
       height="50"
       x="-110"
       y="150" />
    <rect
       y="200"
       x="-210"
       height="50"
       width="50"
       id="rect3102"
       style="color:#000000;fill:#c83737;fill-opacity:1;fill-rule:evenodd;stroke:none;stroke-width:1px;marker:none;visibility:visible;display:inline;overflow:visible;enable-background:accumulate" />
    <rect
       style="color:#000000;fill:#c83737;fill-opacity:1;fill-rule:evenodd;stroke:none;stroke-width:1px;marker:none;visibility:visible;display:inline;overflow:visible;enable-background:accumulate"
       id="rect3104"
       width="50"
       height="50"
       x="-160"
       y="200" />
    <rect
       y="200"
       x="-110"
       height="50"
       width="50"
       id="rect3106"
       style="color:#000000;fill:#c83737;fill-opacity:1;fill-rule:evenodd;stroke:none;stroke-width:1px;marker:none;visibility:visible;display:inline;overflow:visible;enable-background:accumulate" />
    <rect
       style="color:#000000;fill:#c83737;fill-opacity:1;fill-rule:evenodd;stroke:none;stroke-width:1px;marker:none;visibility:visible;display:inline;overflow:visible;enable-background:accumulate"
       id="rect3108"
       width="50"
       height="50"
       x="-210"
       y="250" />
    <rect
       y="250"
       x="-160"
       height="50"
       width="50"
       id="rect3110"
       style="color:#000000;fill:#c83737;fill-opacity:1;fill-rule:evenodd;stroke:none;stroke-width:1px;marker:none;visibility:visible;display:inline;overflow:visible;enable-background:accumulate" />
    <rect
       style="color:#000000;fill:#c83737;fill-opacity:1;fill-rule:evenodd;stroke:none;stroke-width:1px;marker:none;visibility:visible;display:inline;overflow:visible;enable-background:accumulate"
       id="rect3112"
       width="50"
       height="50"
       x="-110"
       y="250" />
    <g
       transform="translate(-210,100)"
       id="g3126">
      <rect
         style="color:#000000;fill:#8bdc31;fill-opacity:1;fill-rule:evenodd;stroke:none;stroke-width:1px;marker:none;visibility:visible;display:inline;overflow:visible;enable-background:accumulate"
         id="rect3128"
         width="50"
         height="50"
         x="-1.1486816e-07"
         y="200" />
      <rect
         y="200"
         x="50"
         height="50"
         width="50"
         id="rect3130"
         style="color:#000000;fill:#8bdc31;fill-opacity:1;fill-rule:evenodd;stroke:none;stroke-width:1px;marker:none;visibility:visible;display:inline;overflow:visible;enable-background:accumulate" />
      <rect
         style="color:#000000;fill:#8bdc31;fill-opacity:1;fill-rule:evenodd;stroke:none;stroke-width:1px;marker:none;visibility:visible;display:inline;overflow:visible;enable-background:accumulate"
         id="rect3132"
         width="50"
         height="50"
         x="100"
         y="200" />
      <rect
         y="250"
         x="-1.1486816e-07"
         height="50"
         width="50"
         id="rect3134"
         style="color:#000000;fill:#8bdc31;fill-opacity:1;fill-rule:evenodd;stroke:none;stroke-width:1px;marker:none;visibility:visible;display:inline;overflow:visible;enable-background:accumulate" />
      <rect
         style="color:#000000;fill:#8bdc31;fill-opacity:1;fill-rule:evenodd;stroke:none;stroke-width:1px;marker:none;visibility:visible;display:inline;overflow:visible;enable-background:accumulate"
         id="rect3136"
         width="50"
         height="50"
         x="50"
         y="250" />
      <rect
         y="250"
         x="100"
         height="50"
         width="50"
         id="rect3138"
         style="color:#000000;fill:#8bdc31;fill-opacity:1;fill-rule:evenodd;stroke:none;stroke-width:1px;marker:none;visibility:visible;display:inline;overflow:visible;enable-background:accumulate" />
      <rect
         style="color:#000000;fill:#8bdc31;fill-opacity:1;fill-rule:evenodd;stroke:none;stroke-width:1px;marker:none;visibility:visible;display:inline;overflow:visible;enable-background:accumulate"
         id="rect3140"
         width="50"
         height="50"
         x="-1.1486816e-07"
         y="300" />
      <rect
         y="300"
         x="50"
         height="50"
         width="50"
         id="rect3142"
         style="color:#000000;fill:#8bdc31;fill-opacity:1;fill-rule:evenodd;stroke:none;stroke-width:1px;marker:none;visibility:visible;display:inline;overflow:visible;enable-background:accumulate" />
      <rect
         style="color:#000000;fill:#8bdc31;fill-opacity:1;fill-rule:evenodd;stroke:none;stroke-width:1px;marker:none;visibility:visible;display:inline;overflow:visible;enable-background:accumulate"
         id="rect3144"
         width="50"
         height="50"
         x="100"
         y="300" />
      <rect
         y="350"
         x="-1.1486816e-07"
         height="50"
         width="50"
         id="rect3146"
         style="color:#000000;fill:#8bdc31;fill-opacity:1;fill-rule:evenodd;stroke:none;stroke-width:1px;marker:none;visibility:visible;display:inline;overflow:visible;enable-background:accumulate" />
      <rect
         style="color:#000000;fill:#8bdc31;fill-opacity:1;fill-rule:evenodd;stroke:none;stroke-width:1px;marker:none;visibility:visible;display:inline;overflow:visible;enable-background:accumulate"
         id="rect3148"
         width="50"
         height="50"
         x="50"
         y="350" />
      <rect
         y="350"
         x="100"
         height="50"
         width="50"
         id="rect3150"
         style="color:#000000;fill:#8bdc31;fill-opacity:1;fill-rule:evenodd;stroke:none;stroke-width:1px;marker:none;visibility:visible;display:inline;overflow:visible;enable-background:accumulate" />
    </g>
    <rect
       style="color:#000000;fill:#8bdc31;fill-opacity:1;fill-rule:evenodd;stroke:none;stroke-width:1px;marker:none;visibility:visible;display:inline;overflow:visible;enable-background:accumulate"
       id="rect3932"
       width="50"
       height="50"
       x="0"
       y="450" />
    <rect
       style="color:#000000;fill:#008000;fill-opacity:1;fill-rule:evenodd;stroke:none;stroke-width:1px;marker:none;visibility:visible;display:inline;overflow:visible;enable-background:accumulate"
       id="rect3055"
       width="1.625"
       height="1.625"
       x="-7.625"
       y="458.5" />
    <use
       x="0"
       y="0"
       xlink:href="#rect3055"
       id="use3079"
       transform="translate(11,-5)"
       width="150"
       height="50" />
    <use
       x="0"
       y="0"
       xlink:href="#rect3055"
       id="use3079-4"
       transform="translate(23.8125,0.93749994)"
       width="150"
       height="50" />
    <use
       x="0"
       y="0"
       xlink:href="#rect3055"
       id="use3079-0"
       transform="translate(14.8125,4.4374999)"
       width="150"
       height="50" />
    <use
       x="0"
       y="0"
       xlink:href="#rect3055"
       id="use3079-45"
       transform="translate(25.5625,19.1875)"
       width="150"
       height="50" />
    <use
       x="0"
       y="0"
       xlink:href="#rect3055"
       id="use3079-6"
       transform="translate(41.1875,7.1874999)"
       width="150"
       height="50" />
    <use
       x="0"
       y="0"
       xlink:href="#rect3055"
       id="use3079-2"
       transform="translate(29.8125,10.9375)"
       width="150"
       height="50" />
    <use
       x="0"
       y="0"
       xlink:href="#rect3055"
       id="use3079-43"
       transform="translate(46.1875,-2.1875001)"
       width="150"
       height="50" />
    <use
       x="0"
       y="0"
       xlink:href="#rect3055"
       id="use3079-09"
       transform="translate(31.5625,-2.8125001)"
       width="150"
       height="50" />
    <use
       x="0"
       y="0"
       xlink:href="#rect3055"
       id="use3079-21"
       transform="translate(50.8125,17.1875)"
       width="150"
       height="50" />
    <use
       x="0"
       y="0"
       xlink:href="#rect3055"
       id="use3079-7"
       transform="translate(41.5625,29.6875)"
       width="150"
       height="50" />
    <use
       x="0"
       y="0"
       xlink:href="#rect3055"
       id="use3079-9"
       transform="translate(24.5625,33.8125)"
       width="150"
       height="50" />
    <use
       x="0"
       y="0"
       xlink:href="#rect3055"
       id="use3079-77"
       transform="translate(10.3125,19.0625)"
       width="150"
       height="50" />
    <use
       x="0"
       y="0"
       xlink:href="#rect3055"
       id="use3079-68"
       transform="translate(20.6875,9.8125)"
       width="150"
       height="50" />
    <use
       x="0"
       y="0"
       xlink:href="#rect3055"
       id="use3079-94"
       transform="translate(16.0625,27.3125)"
       width="150"
       height="50" />
    <use
       x="0"
       y="0"
       xlink:href="#rect3055"
       id="use3079-92"
       transform="translate(12.3125,36.1875)"
       width="150"
       height="50" />
    <use
       x="0"
       y="0"
       xlink:href="#rect3055"
       id="use3079-5"
       transform="translate(34.1875,19.4375)"
       width="150"
       height="50" />
    <use
       x="0"
       y="0"
       xlink:href="#rect3055"
       id="use3079-22"
       transform="translate(43.3125,13.5625)"
       width="150"
       height="50" />
    <use
       x="0"
       y="0"
       xlink:href="#rect3055"
       id="use3079-98"
       transform="translate(49.5625,34.0625)"
       width="150"
       height="50" />
    <use
       x="0"
       y="0"
       xlink:href="#rect3055"
       id="use3079-3"
       transform="translate(29.9375,24.5625)"
       width="150"
       height="50" />
    <use
       x="0"
       y="0"
       xlink:href="#rect3055"
       id="use3079-37"
       transform="translate(35.8125,34.8125)"
       width="150"
       height="50" />
    <use
       x="0"
       y="0"
       xlink:href="#rect3055"
       id="use3079-76"
       transform="translate(51.1875,5.6874999)"
       width="150"
       height="50" />
    <use
       x="0"
       y="0"
       xlink:href="#rect3055"
       id="use3079-67"
       transform="translate(39.6875,-6.8125001)"
       width="150"
       height="50" />
    <use
       x="0"
       y="0"
       xlink:href="#rect3055"
       id="use3079-34"
       transform="translate(33.9375,4.1874999)"
       width="150"
       height="50" />
  </g>
</svg>
