<?xml version="1.0" encoding="UTF-8" standalone="no"?>
<!-- Created with Inkscape (http://www.inkscape.org/) -->

<svg
   xmlns:dc="http://purl.org/dc/elements/1.1/"
   xmlns:cc="http://creativecommons.org/ns#"
   xmlns:rdf="http://www.w3.org/1999/02/22-rdf-syntax-ns#"
   xmlns:svg="http://www.w3.org/2000/svg"
   xmlns="http://www.w3.org/2000/svg"
   xmlns:sodipodi="http://sodipodi.sourceforge.net/DTD/sodipodi-0.dtd"
   xmlns:inkscape="http://www.inkscape.org/namespaces/inkscape"
   width="800"
   height="600"
   id="svg2"
   sodipodi:version="0.32"
   inkscape:version="0.91 r13725"
   version="1.0"
   sodipodi:docname="schemas.svg"
   inkscape:output_extension="org.inkscape.output.svg.inkscape">
  <defs
     id="defs4" />
  <sodipodi:namedview
     id="base"
     pagecolor="#ffffff"
     bordercolor="#666666"
     borderopacity="1.0"
     gridtolerance="10000"
     guidetolerance="10"
     objecttolerance="10"
     inkscape:pageopacity="1"
     inkscape:pageshadow="2"
     inkscape:zoom="2"
     inkscape:cx="469.43981"
     inkscape:cy="694.05185"
     inkscape:document-units="px"
     inkscape:current-layer="layer1"
     width="540px"
     height="744.09448px"
     inkscape:showpageshadow="false"
     inkscape:window-width="1280"
     inkscape:window-height="724"
     inkscape:window-x="156"
     inkscape:window-y="900"
     showgrid="false"
     inkscape:window-maximized="1" />
  <metadata
     id="metadata7">
    <rdf:RDF>
      <cc:Work
         rdf:about="">
        <dc:format>image/svg+xml</dc:format>
        <dc:type
           rdf:resource="http://purl.org/dc/dcmitype/StillImage" />
        <dc:title />
      </cc:Work>
    </rdf:RDF>
  </metadata>
  <g
     inkscape:groupmode="layer"
     id="layer1"
     inkscape:label="Layer"
     transform="translate(0,150)">
    <rect
       style="color:#000000;fill:#000000;fill-opacity:1;fill-rule:nonzero;stroke:#000000;stroke-width:0.99999988px;stroke-linecap:butt;stroke-linejoin:miter;stroke-miterlimit:4;stroke-opacity:1;stroke-dasharray:none;stroke-dashoffset:0;marker:none;visibility:visible;display:inline;overflow:visible;enable-background:accumulate"
       id="rect3591"
       width="1199"
       height="39"
       x="0.49999997"
       y="-149.5" />
    <rect
       y="-514.55377"
       x="299.5"
       height="624.05377"
       width="900"
       id="rect3593"
       style="color:#000000;fill:#003780;fill-opacity:1;fill-rule:nonzero;stroke:#000000;stroke-width:0.99999987999999995px;stroke-linecap:butt;stroke-linejoin:miter;stroke-miterlimit:4;stroke-opacity:1;stroke-dasharray:none;stroke-dashoffset:0;marker:none;visibility:visible;display:inline;overflow:visible;enable-background:accumulate"
       transform="scale(1,-1)" />
    <rect
       style="color:#000000;fill:#ffffff;fill-opacity:1;fill-rule:nonzero;stroke:#000000;stroke-width:0.99999994px;stroke-linecap:butt;stroke-linejoin:miter;stroke-miterlimit:4;stroke-opacity:1;stroke-dasharray:none;stroke-dashoffset:0;marker:none;visibility:visible;display:inline;overflow:visible;enable-background:accumulate"
       id="rect3595"
       width="23"
       height="23"
       x="10"
       y="-141.5" />
    <rect
       y="-141.5"
       x="50"
       height="23"
       width="23"
       id="rect3597"
       style="color:#000000;fill:#ffffff;fill-opacity:1;fill-rule:nonzero;stroke:#000000;stroke-width:0.99999994px;stroke-linecap:butt;stroke-linejoin:miter;stroke-miterlimit:4;stroke-opacity:1;stroke-dasharray:none;stroke-dashoffset:0;marker:none;visibility:visible;display:inline;overflow:visible;enable-background:accumulate" />
    <text
       xml:space="preserve"
       style="font-size:11.49450207px;font-style:normal;font-weight:normal;line-height:125%;letter-spacing:0px;word-spacing:0px;fill:#000000;fill-opacity:1;stroke:none;font-family:Sans"
       x="34.335114"
       y="-162.10254"
       id="text3599"
       sodipodi:linespacing="125%"><tspan
         sodipodi:role="line"
         id="tspan3601"
         x="34.335114"
         y="-162.10254">import</tspan></text>
    <text
       sodipodi:linespacing="125%"
       id="text3603"
       y="-161.83041"
       x="0.13826704"
       style="font-size:11.49450207px;font-style:normal;font-weight:normal;line-height:125%;letter-spacing:0px;word-spacing:0px;fill:#000000;fill-opacity:1;stroke:none;font-family:Sans"
       xml:space="preserve"><tspan
         y="-161.83041"
         x="0.13826704"
         id="tspan3605"
         sodipodi:role="line">new</tspan></text>
    <rect
       style="color:#000000;fill:#ffffff;fill-opacity:1;fill-rule:nonzero;stroke:#000000;stroke-width:0.99999994px;stroke-linecap:butt;stroke-linejoin:miter;stroke-miterlimit:4;stroke-opacity:1;stroke-dasharray:none;stroke-dashoffset:0;marker:none;visibility:visible;display:inline;overflow:visible;enable-background:accumulate"
       id="rect3607"
       width="23"
       height="23"
       x="90"
       y="-141.5" />
    <text
       sodipodi:linespacing="125%"
       id="text3609"
       y="-161.92113"
       x="80.992119"
       style="font-size:11.49450207px;font-style:normal;font-weight:normal;line-height:125%;letter-spacing:0px;word-spacing:0px;fill:#000000;fill-opacity:1;stroke:none;font-family:Sans"
       xml:space="preserve"><tspan
         y="-161.92113"
         x="80.992119"
         id="tspan3611"
         sodipodi:role="line">export</tspan></text>
    <rect
       y="-514.13684"
       x="0.5"
       height="623.63684"
       width="299"
       id="rect3658"
       style="color:#000000;fill:#808080;fill-opacity:1;fill-rule:nonzero;stroke:#000000;stroke-width:0.99999987999999995px;stroke-linecap:butt;stroke-linejoin:miter;stroke-miterlimit:4;stroke-opacity:1;stroke-dasharray:none;stroke-dashoffset:0;marker:none;visibility:visible;display:inline;overflow:visible;enable-background:accumulate"
       transform="scale(1,-1)" />
    <rect
       y="-142.57359"
       x="411.87408"
       height="23"
       width="23"
       id="rect3620"
       style="color:#000000;fill:#ffffff;fill-opacity:1;fill-rule:nonzero;stroke:#000000;stroke-width:0.99999994px;stroke-linecap:butt;stroke-linejoin:miter;stroke-miterlimit:4;stroke-opacity:1;stroke-dasharray:none;stroke-dashoffset:0;marker:none;visibility:visible;display:inline;overflow:visible;enable-background:accumulate" />
    <text
       sodipodi:linespacing="125%"
       id="text3636"
       y="-166.7982"
       x="409.5625"
       style="font-size:8.61670017px;font-style:normal;font-weight:normal;line-height:125%;letter-spacing:0px;word-spacing:0px;fill:#000000;fill-opacity:1;stroke:none;font-family:Sans"
       xml:space="preserve"
       transform="matrix(0.99986611,0.01636351,-0.01636351,0.99986611,0,0)"><tspan
         y="-166.7982"
         x="409.5625"
         id="tspan3638"
         sodipodi:role="line">ground</tspan></text>
    <rect
       style="color:#000000;fill:#ffffff;fill-opacity:1;fill-rule:nonzero;stroke:#000000;stroke-width:0.99999994px;stroke-linecap:butt;stroke-linejoin:miter;stroke-miterlimit:4;stroke-opacity:1;stroke-dasharray:none;stroke-dashoffset:0;marker:none;visibility:visible;display:inline;overflow:visible;enable-background:accumulate"
       id="rect3640"
       width="23"
       height="23"
       x="455.87408"
       y="-142.57359" />
    <text
       xml:space="preserve"
       style="font-size:8.61670017px;font-style:normal;font-weight:normal;line-height:125%;letter-spacing:0px;word-spacing:0px;fill:#000000;fill-opacity:1;stroke:none;font-family:Sans"
       x="457.32767"
       y="-150.57709"
       id="text3642"
       sodipodi:linespacing="125%"
       transform="matrix(0.99985024,-0.01730626,0.01730626,0.99985024,0,0)"><tspan
         sodipodi:role="line"
         id="tspan3644"
         x="457.32767"
         y="-150.57709">objects</tspan></text>
    <rect
       y="-142.57359"
       x="499.87402"
       height="23"
       width="23"
       id="rect3646"
       style="color:#000000;fill:#ffffff;fill-opacity:1;fill-rule:nonzero;stroke:#000000;stroke-width:0.99999994px;stroke-linecap:butt;stroke-linejoin:miter;stroke-miterlimit:4;stroke-opacity:1;stroke-dasharray:none;stroke-dashoffset:0;marker:none;visibility:visible;display:inline;overflow:visible;enable-background:accumulate" />
    <text
       sodipodi:linespacing="125%"
       id="text3648"
       y="-151.66106"
       x="501.58527"
       style="font-size:8.61670017px;font-style:normal;font-weight:normal;line-height:125%;letter-spacing:0px;word-spacing:0px;fill:#000000;fill-opacity:1;stroke:none;font-family:Sans"
       xml:space="preserve"
       transform="matrix(0.99990264,-0.01395401,0.01395401,0.99990264,0,0)"><tspan
         y="-151.66106"
         x="501.58527"
         id="tspan3650"
         sodipodi:role="line">entities</tspan></text>
    <rect
       y="-142.5"
       x="235"
       height="23"
       width="23"
       id="rect3664"
       style="color:#000000;fill:#ffffff;fill-opacity:1;fill-rule:nonzero;stroke:#000000;stroke-width:0.99999994px;stroke-linecap:butt;stroke-linejoin:miter;stroke-miterlimit:4;stroke-opacity:1;stroke-dasharray:none;stroke-dashoffset:0;marker:none;visibility:visible;display:inline;overflow:visible;enable-background:accumulate" />
    <rect
       style="color:#000000;fill:#ffffff;fill-opacity:1;fill-rule:nonzero;stroke:#000000;stroke-width:0.99999994px;stroke-linecap:butt;stroke-linejoin:miter;stroke-miterlimit:4;stroke-opacity:1;stroke-dasharray:none;stroke-dashoffset:0;marker:none;visibility:visible;display:inline;overflow:visible;enable-background:accumulate"
       id="rect3670"
       width="23"
       height="23"
       x="275"
       y="-142.5" />
    <rect
       y="-142.5"
       x="315"
       height="23"
       width="23"
       id="rect3676"
       style="color:#000000;fill:#ffffff;fill-opacity:1;fill-rule:nonzero;stroke:#000000;stroke-width:0.99999994px;stroke-linecap:butt;stroke-linejoin:miter;stroke-miterlimit:4;stroke-opacity:1;stroke-dasharray:none;stroke-dashoffset:0;marker:none;visibility:visible;display:inline;overflow:visible;enable-background:accumulate" />
    <rect
       style="color:#000000;fill:#ffffff;fill-opacity:1;fill-rule:nonzero;stroke:#000000;stroke-width:0.99999994px;stroke-linecap:butt;stroke-linejoin:miter;stroke-miterlimit:4;stroke-opacity:1;stroke-dasharray:none;stroke-dashoffset:0;marker:none;visibility:visible;display:inline;overflow:visible;enable-background:accumulate"
       id="rect3682"
       width="23"
       height="23"
       x="355"
       y="-142.5" />
    <rect
       transform="scale(1,-1)"
       style="color:#000000;fill:#ffffff;fill-opacity:1;fill-rule:nonzero;stroke:#000000;stroke-width:1px;stroke-linecap:butt;stroke-linejoin:miter;stroke-miterlimit:4;stroke-opacity:1;stroke-dasharray:none;stroke-dashoffset:0;marker:none;visibility:visible;display:inline;overflow:visible;enable-background:accumulate"
       id="rect3698"
       width="19.545895"
       height="624.05377"
       x="1179.9541"
       y="-514.55377" />
    <rect
       y="-241.61055"
       x="1179.9541"
       height="351.11057"
       width="19.545895"
       id="rect3700"
       style="color:#000000;fill:#999999;fill-opacity:1;fill-rule:nonzero;stroke:#000000;stroke-width:0.99999994000000003px;stroke-linecap:butt;stroke-linejoin:miter;stroke-miterlimit:4;stroke-opacity:1;stroke-dasharray:none;stroke-dashoffset:0;marker:none;visibility:visible;display:inline;overflow:visible;enable-background:accumulate"
       transform="scale(1,-1)" />
    <rect
       y="-142.57359"
       x="549.87402"
       height="23"
       width="23"
       id="rect4478"
       style="color:#000000;fill:#ffffff;fill-opacity:1;fill-rule:nonzero;stroke:#000000;stroke-width:0.99999994px;stroke-linecap:butt;stroke-linejoin:miter;stroke-miterlimit:4;stroke-opacity:1;stroke-dasharray:none;stroke-dashoffset:0;marker:none;visibility:visible;display:inline;overflow:visible;enable-background:accumulate" />
    <text
       sodipodi:linespacing="125%"
       id="text4480"
       y="-150.90753"
       x="555.58002"
       style="font-size:8.61670017px;font-style:normal;font-weight:normal;line-height:125%;letter-spacing:0px;word-spacing:0px;fill:#000000;fill-opacity:1;stroke:none;font-family:Sans"
       xml:space="preserve"
       transform="matrix(0.99990264,-0.01395401,0.01395401,0.99990264,0,0)"><tspan
         y="-150.90753"
         x="555.58002"
         id="tspan4482"
         sodipodi:role="line">tileset</tspan></text>
    <rect
       transform="scale(1,-1)"
       style="color:#000000;fill:#ececec;fill-opacity:1;fill-rule:nonzero;stroke:#b3b3b3;stroke-width:0.99999976px;stroke-linecap:butt;stroke-linejoin:miter;stroke-miterlimit:4;stroke-opacity:1;stroke-dasharray:none;stroke-dashoffset:0;marker:none;visibility:visible;display:inline;overflow:visible;enable-background:accumulate"
       id="rect4484"
       width="267.55453"
       height="614.13232"
       x="5.2416382"
       y="-509.13687" />
    <rect
       y="-138.125"
       x="17.125"
       height="14.125"
       width="11.5"
       id="rect4486"
       style="color:#000000;fill:#ffffff;fill-opacity:1;fill-rule:nonzero;stroke:#000000;stroke-width:0.99999994px;stroke-linecap:butt;stroke-linejoin:miter;stroke-miterlimit:4;stroke-opacity:1;stroke-dasharray:none;stroke-dashoffset:0;marker:none;visibility:visible;display:inline;overflow:visible;enable-background:accumulate" />
    <path
       style="fill:none;stroke:#000000;stroke-width:1px;stroke-linecap:butt;stroke-linejoin:miter;stroke-opacity:1"
       d="m 61.625,13.249999 c -0.02447,1.075873 0.925962,10.875 0.25,10.875 -0.23051,0 0.222147,-6.861414 0,-7.75 -0.17498,-0.699921 -0.375,-1.656301 -0.375,-2.375 0,-0.106488 0.125,-1.261143 0.125,-0.75 0,2.518303 0,5.136877 0,7.625 0,0.183055 0.154227,3.625 0.125,3.625 -1.135032,0 -3.125,-3.151815 -3.125,-2.375 0,0.484874 1.697542,1.671312 2,2.125 0.139541,0.209312 0.623636,1.5 0.875,1.5 0.61942,0 0.347987,-1.195974 0.625,-1.75 0.355179,-0.710358 2.375,-1.812333 2.375,-2.625 0,-0.0071 -1.028661,1.153661 -1.125,1.25 -1.022003,1.022003 -1.496788,2.371788 -2.5,3.375 -0.343592,0.343592 -0.406408,-0.906408 -0.75,-1.25 -0.357069,-0.357069 -2.247205,-3.002795 -1.75,-3.5 0.889732,-0.889732 3.595737,4 3.875,4 0.36516,0 0.994381,-1.369381 1.25,-1.625 0.389506,-0.389506 1.875,-1.136997 1.875,-1.75 0,-0.386859 -1.347714,0.423857 -2,0.75"
       id="path4488"
       inkscape:connector-curvature="0"
       transform="translate(0,-150)" />
    <path
       style="fill:none;stroke:#000000;stroke-width:1px;stroke-linecap:butt;stroke-linejoin:miter;stroke-opacity:1"
       d="m 100.25,25.624999 c 0.85576,-3.516311 -0.483632,-7.907736 1.125,-11.125 0.20582,-0.411636 0.58522,-1.375 0.125,-1.375 -0.10829,0 -3.487276,2.775447 -3.75,2.25 -0.0085,-0.01706 1.111876,-0.742125 1.125,-0.75 0.320733,-0.19244 2.44095,-1.654526 2.75,-1.5 0.4054,0.202699 4.04746,3.780089 4,3.875 -0.49786,0.995718 -4.12562,-2.95854 -4.625,-3.125 -0.26804,-0.08935 -4.125,1.6345 -4.125,2.125 0,0.32017 1.699858,-0.591572 1.75,-0.625 1.203899,-0.802599 2.67092,-2.42772 3.875,-1.625"
       id="path4490"
       inkscape:connector-curvature="0"
       transform="translate(0,-150)" />
    <path
       style="fill:none;stroke:#000000;stroke-width:1px;stroke-linecap:butt;stroke-linejoin:miter;stroke-opacity:1"
       d="m 249.625,-136.875 c -0.47155,1.73597 -7.375,7.21209 -7.375,8.25 0,0.10992 0.19403,0.95708 0.25,1.125 0.47078,1.41233 -0.21299,3.375 0,3.375 0.51087,0 5.87704,-1.49592 5.75,-1.75 -1.39608,-2.79215 -5.306,-2.931 -6,-3.625 -0.0327,-0.0327 1.3051,0.125 2.5,0.125 1.0445,0 2.54814,0.79814 3.25,1.5 0.3076,0.3076 0.6826,1.5576 0.375,1.25 -0.20833,-0.20833 0.41667,-0.41667 0.625,-0.625 1.85714,-1.85714 3.8855,-4.64076 5.375,-6.875 0.13199,-0.19799 1,-0.91919 1,-1.125 0,-0.19789 -0.56807,-0.75372 -0.75,-0.875 -1.6733,-1.11554 -2.37766,-1.49867 -4.125,-0.625 -0.26352,0.13176 -0.66667,-0.33333 -0.875,-0.125 -0.15023,0.15023 0.125,0.41254 0.125,0.625 0,0.62038 -1.75754,2.32381 -2.125,2.875 -0.75594,1.13392 -1.52502,2.28753 -2.25,3.375 -0.004,0.006 -0.21327,0.66173 -0.25,0.625 -0.0435,-0.0435 1.59293,-1.28076 1.75,-1.375 1.4175,-0.8505 2.51679,-2.09452 3.875,-3 1.23647,-0.82432 1.75,-2.84331 1.75,-2.625 0,1.15856 -2.0769,3.61536 -2.75,4.625 -0.53729,0.80594 -1.14055,1.8122 -1.375,2.75 -0.0505,0.20211 -0.375,0.70833 -0.375,0.5 0,-0.95766 2.69432,-2.29149 3.25,-3.125 0.69255,-1.03883 2.25,-4.0839 2.25,-4.75"
       id="path4492"
       inkscape:connector-curvature="0" />
    <path
       style="fill:none;stroke:#000000;stroke-width:1px;stroke-linecap:butt;stroke-linejoin:miter;stroke-opacity:1"
       d="m 282.375,-135.5 c 2.42278,0.74241 7.7915,-1.04175 9.875,0 0.3879,0.19395 -0.25,5.65212 -0.25,6.5 0,0.46937 -0.0917,2.92086 -0.5,3.125 -1.1093,0.55465 -9.61551,0.16983 -11.25,-0.375 -0.5775,-0.1925 -0.25,-2.92702 -0.25,-3.5 0,-1.36732 -0.89034,-4.21933 -0.25,-5.5 0.10027,-0.20053 1.91202,-0.1074 2.625,-0.25 z"
       id="path4494"
       inkscape:connector-curvature="0" />
    <path
       style="fill:none;stroke:#000000;stroke-width:1px;stroke-linecap:butt;stroke-linejoin:miter;stroke-opacity:1"
       d="m 321.875,-127.375 c 0.2131,-1.26221 0.125,-2.58854 0.125,-3.875 0,-0.41111 0.0437,-4.66564 0.375,-4.5 1.5555,0.77775 7.5941,2.93681 8.875,0.375 1.13163,-2.26326 -5.39321,-2.70226 -6.75,-2.25 -1.0116,0.3372 -1.8469,0.67345 -2.75,1.125 -0.20513,0.10257 -0.125,0.43672 -0.125,0.625 0,0.36542 0.38254,0.26507 0.5,0.5 0.007,0.0134 -0.22207,5.81915 -0.375,6.125 -0.35029,0.70059 0.25121,1.24394 0.125,1.875 -0.16774,0.8387 -1.3174,1.70506 -0.125,2.5 1.00191,0.66794 3.26686,1.125 4.5,1.125 0.87502,0 2.24836,0.25082 3,-0.125 0.77793,-0.38897 2.55118,-0.85236 3,-1.75 0.62568,-1.25136 -0.375,-6.58046 -0.375,-8.375 0,-0.30318 -0.28295,-2.21705 -0.25,-2.25 0.10383,-0.10383 -0.13869,2.13184 -2.125,3.125 -1.533,0.7665 -3.70768,0.375 -5.375,0.375 -0.44469,0 -1.75,-1.02043 -1.75,-0.75 0,1.25312 -1.72807,5.10161 -0.5,6.125 1.56186,1.30155 6.28539,0.9882 8.125,0.375 0.4767,-0.1589 1.10269,-0.47769 1.5,-0.875 0.16667,-0.16667 0.33333,-0.66667 0.5,-0.5 0.0373,0.0373 -1,-1.08309 -1,-2.375 0,-0.39541 0.23075,-2.32213 -0.125,-2.5 -0.22018,-0.11009 -4.27009,1.4933 -5.75,1 -0.49352,-0.16451 -3.72332,-0.55337 -3.25,-1.5 0.71269,-1.42538 5.72936,0.625 7.5,0.625 0.33056,0 1.83677,-0.20146 2,0.125 0.46531,0.93062 0.125,3.16882 0.125,4.25 0,1.35504 0.56628,2.53915 -0.875,3.5 -2.88796,1.92531 -5.9239,0.16305 -8.5,-1.125 -0.14156,-0.0708 -1,0.14346 -1,-0.125 0,-0.23577 5.95217,0.96141 6.625,0.625 0.63772,-0.31886 2.49881,-1.125 3.25,-1.125 0.1718,0 0.62148,-0.24648 0.5,-0.125 -1.02559,1.02559 -8.45921,2.83158 -9.375,1 -0.2198,-0.4396 -0.13947,-4.34606 0.25,-5.125 0.67124,-1.34248 0.39838,-3.60162 0.75,-3.25 1.42109,1.42109 -0.13405,7.40215 -0.625,8.875"
       id="path4496"
       inkscape:connector-curvature="0" />
    <path
       style="fill:none;stroke:#000000;stroke-width:1px;stroke-linecap:butt;stroke-linejoin:miter;stroke-opacity:1"
       d="m 364.125,-136.125 c -1.00785,2.04406 -2.27988,3.83964 -3,6 -0.25345,0.76034 -0.55827,2.69173 -1.125,2.125 -0.0182,-0.0182 0.25972,-0.01 0.375,-0.125 0.48628,-0.48628 0.95562,-0.875 1.625,-0.875 2.70983,0 4.56434,1.21967 6.625,2.25 2.60935,1.30467 -3.03267,2.92116 -4.875,2 -0.77305,-0.38653 -4.25,-2.20737 -4.25,-3.125 0,-0.50214 0.96845,-1.70268 1.25,-2.125 1.69298,-2.53948 1.54687,-5.77343 4.75,-7.375 0.71638,-0.35819 1.98177,0.13108 2.75,-0.125 1.06709,-0.3557 1.74628,0.16419 2.625,0.75 0.54021,0.36014 1.43063,0.86126 1.75,1.5 0.76945,1.53889 -2.93629,10.02043 -4.375,10.5"
       id="path4498"
       inkscape:connector-curvature="0" />
    <rect
       y="-277.96777"
       x="278.22705"
       height="380.02304"
       width="16.618902"
       id="rect3700-0"
       style="color:#000000;fill:#999999;fill-opacity:1;fill-rule:nonzero;stroke:#000000;stroke-width:0.99999994px;stroke-linecap:butt;stroke-linejoin:miter;stroke-miterlimit:4;stroke-opacity:1;stroke-dasharray:none;stroke-dashoffset:0;marker:none;visibility:visible;display:inline;overflow:visible;enable-background:accumulate"
       transform="scale(1,-1)" />
    <rect
       style="color:#000000;fill:#ececec;fill-opacity:1;fill-rule:nonzero;stroke:#000000;stroke-width:1px;stroke-linecap:butt;stroke-linejoin:miter;stroke-miterlimit:4;stroke-opacity:1;stroke-dasharray:none;stroke-dashoffset:0;marker:none;visibility:visible;display:inline;overflow:visible;enable-background:accumulate"
       id="rect4518"
       width="16.618902"
       height="233.88945"
       x="278.22705"
       y="275.5553" />
    <text
       xml:space="preserve"
       style="font-size:11.49450207px;font-style:normal;font-weight:normal;line-height:125%;letter-spacing:0px;word-spacing:0px;fill:#000000;fill-opacity:1;stroke:none;font-family:Sans"
       x="235.21375"
       y="-159.82892"
       id="text3666"
       sodipodi:linespacing="125%"><tspan
         sodipodi:role="line"
         id="tspan3668"
         x="235.21375"
         y="-159.82892">pen</tspan></text>
    <text
       sodipodi:linespacing="125%"
       id="text3672"
       y="-159.82892"
       x="273.09241"
       style="font-size:11.49450207px;font-style:normal;font-weight:normal;line-height:125%;letter-spacing:0px;word-spacing:0px;fill:#000000;fill-opacity:1;stroke:none;font-family:Sans"
       xml:space="preserve"><tspan
         y="-159.82892"
         x="273.09241"
         id="tspan3674"
         sodipodi:role="line">rect</tspan></text>
    <text
       xml:space="preserve"
       style="font-size:11.49450207px;font-style:normal;font-weight:normal;line-height:125%;letter-spacing:0px;word-spacing:0px;fill:#000000;fill-opacity:1;stroke:none;font-family:Sans"
       x="308.09238"
       y="-160.82892"
       id="text3678"
       sodipodi:linespacing="125%"><tspan
         sodipodi:role="line"
         id="tspan3680"
         x="308.09238"
         y="-160.82892">bucket</tspan></text>
    <text
       sodipodi:linespacing="125%"
       id="text3684"
       y="-159.82892"
       x="353.09238"
       style="font-size:11.49450207px;font-style:normal;font-weight:normal;line-height:125%;letter-spacing:0px;word-spacing:0px;fill:#000000;fill-opacity:1;stroke:none;font-family:Sans"
       xml:space="preserve"><tspan
         y="-159.82892"
         x="353.09238"
         id="tspan3686"
         sodipodi:role="line">eraser</tspan></text>
    <path
       style="color:#000000;fill:#ffffff;fill-opacity:1;fill-rule:nonzero;stroke:#b3b3b3;stroke-width:0.99999987999999995px;stroke-linecap:butt;stroke-linejoin:miter;stroke-miterlimit:4;stroke-opacity:1;stroke-dashoffset:0;marker:none;visibility:visible;display:inline;overflow:visible;enable-background:accumulate"
       d="m 132,-110.17287 0,-39.99999"
       id="rect3613"
       inkscape:connector-curvature="0"
       sodipodi:nodetypes="cc" />
    <rect
       y="-142.17287"
       x="145"
       height="23"
       width="23"
       id="rect3616"
       style="color:#000000;fill:#ffffff;fill-opacity:1;fill-rule:nonzero;stroke:#000000;stroke-width:0.99999994px;stroke-linecap:butt;stroke-linejoin:miter;stroke-miterlimit:4;stroke-opacity:1;stroke-dasharray:none;stroke-dashoffset:0;marker:none;visibility:visible;display:inline;overflow:visible;enable-background:accumulate" />
    <rect
       style="color:#000000;fill:#ffffff;fill-opacity:1;fill-rule:nonzero;stroke:#000000;stroke-width:0.99999994px;stroke-linecap:butt;stroke-linejoin:miter;stroke-miterlimit:4;stroke-opacity:1;stroke-dasharray:none;stroke-dashoffset:0;marker:none;visibility:visible;display:inline;overflow:visible;enable-background:accumulate"
       id="rect3618"
       width="23"
       height="23"
       x="185"
       y="-142.17287" />
    <path
       sodipodi:nodetypes="cc"
       inkscape:connector-curvature="0"
       id="path3622"
       d="m 220,-110.17287 0,-39.99999"
       style="color:#000000;fill:#ffffff;fill-opacity:1;fill-rule:nonzero;stroke:#b3b3b3;stroke-width:0.99999988px;stroke-linecap:butt;stroke-linejoin:miter;stroke-miterlimit:4;stroke-opacity:1;stroke-dashoffset:0;marker:none;visibility:visible;display:inline;overflow:visible;enable-background:accumulate" />
    <path
       style="fill:none;stroke:#000000;stroke-width:1px;stroke-linecap:butt;stroke-linejoin:miter;stroke-opacity:1"
       d="m 156.75,-123.17287 c -9.09664,2.35301 -8.82346,-10.73164 -1.75,-12.50001 1.1716,-0.2929 2.9664,0.0168 4,-0.5 0.0116,-0.006 1.25,-0.50902 1.25,-0.25 0,0.24828 -4.87406,-1.81202 -5.25,-2 -0.65488,-0.32743 2.98318,1.1166 5.25,2.25 0.14682,0.0734 -5.8394,5.4197 -4.5,4.75 7.77414,-3.88706 2.34849,-5.32575 -1.5,-7.25 -2.65975,-1.32987 5.5,2.47119 5.5,2.5 0,1.17852 -2.32149,-0.5 -3.5,-0.5 -1.9208,0 -5.10695,1.9639 -6,3.75 -3.26534,6.53068 -0.0332,9.75001 6.5,9.75001 z"
       id="path3632"
       inkscape:connector-curvature="0" />
    <path
       style="fill:none;stroke:#000000;stroke-width:1px;stroke-linecap:butt;stroke-linejoin:miter;stroke-opacity:1"
       d="m 192.5,-123.92288 c 0.80004,0.16642 1.69873,-0.16025 2.5,0 8.80547,1.7611 8.38835,-10.05582 4,-12.25 -0.22061,-0.1103 -7.25,-1.30148 -7.25,-0.75 0,0.53252 4.21821,3.53179 4,3.75 -0.099,0.099 -5.75,-2.86247 -5.75,-3.5 0,-1.25757 8.25,-0.80862 8.25,-2.5 0,-1.22167 -7.06381,3.40429 -7,3.5 0.51499,0.77249 4.75,4.26159 4.75,4 0,-1.43774 -4,-3.9724 -4,-5.5 0,-1.42316 7.70879,2.91758 8.5,4.5 2.5616,5.1232 -2.33768,12.1474 -8,8.75 z"
       id="path3634"
       inkscape:connector-curvature="0" />
    <text
       sodipodi:linespacing="125%"
       id="text3624"
       y="-158.55553"
       x="144.00311"
       style="font-size:11.49450207px;font-style:normal;font-weight:normal;line-height:125%;letter-spacing:0px;word-spacing:0px;fill:#000000;fill-opacity:1;stroke:none;font-family:Sans"
       xml:space="preserve"><tspan
         y="-158.55553"
         x="144.00311"
         id="tspan3626"
         sodipodi:role="line">redo</tspan></text>
    <text
       xml:space="preserve"
       style="font-size:11.49450207px;font-style:normal;font-weight:normal;line-height:125%;letter-spacing:0px;word-spacing:0px;fill:#000000;fill-opacity:1;stroke:none;font-family:Sans"
       x="180.6601"
       y="-158.87411"
       id="text3628"
       sodipodi:linespacing="125%"><tspan
         sodipodi:role="line"
         id="tspan3630"
         x="180.6601"
         y="-158.87411">undo</tspan></text>
    <path
       style="color:#000000;fill:#ffffff;fill-opacity:1;fill-rule:nonzero;stroke:#b3b3b3;stroke-width:0.99999988px;stroke-linecap:butt;stroke-linejoin:miter;stroke-miterlimit:4;stroke-opacity:1;stroke-dashoffset:0;marker:none;visibility:visible;display:inline;overflow:visible;enable-background:accumulate"
       d="m 392,-110.17287 0,-39.99999"
       id="path4633"
       inkscape:connector-curvature="0"
       sodipodi:nodetypes="cc" />
    <path
       sodipodi:nodetypes="cc"
       inkscape:connector-curvature="0"
       id="path4635"
       d="m 538,-110.17287 0,-39.99999"
       style="color:#000000;fill:#ffffff;fill-opacity:1;fill-rule:nonzero;stroke:#b3b3b3;stroke-width:0.99999988px;stroke-linecap:butt;stroke-linejoin:miter;stroke-miterlimit:4;stroke-opacity:1;stroke-dashoffset:0;marker:none;visibility:visible;display:inline;overflow:visible;enable-background:accumulate" />
    <rect
       style="color:#000000;clip-rule:nonzero;display:inline;overflow:visible;visibility:visible;opacity:1;isolation:auto;mix-blend-mode:normal;color-interpolation:sRGB;color-interpolation-filters:linearRGB;solid-color:#000000;solid-opacity:1;fill:#f2f2f2;fill-opacity:1;fill-rule:evenodd;stroke:none;stroke-width:1;stroke-linecap:round;stroke-linejoin:round;stroke-miterlimit:4;stroke-dasharray:none;stroke-dashoffset:0;stroke-opacity:1;color-rendering:auto;image-rendering:auto;shape-rendering:auto;text-rendering:auto;enable-background:accumulate"
       id="rect4195"
       width="20"
       height="20"
       x="413.5"
       y="-298"
       inkscape:export-filename="/home/karlisson/dev/acrilic/img/screen_bg.png"
       inkscape:export-xdpi="90"
       inkscape:export-ydpi="90" />
    <rect
       y="-298"
       x="433.5"
       height="20"
       width="20"
       id="rect4197"
       style="color:#000000;clip-rule:nonzero;display:inline;overflow:visible;visibility:visible;opacity:1;isolation:auto;mix-blend-mode:normal;color-interpolation:sRGB;color-interpolation-filters:linearRGB;solid-color:#000000;solid-opacity:1;fill:#e6e6e6;fill-opacity:1;fill-rule:evenodd;stroke:none;stroke-width:1;stroke-linecap:round;stroke-linejoin:round;stroke-miterlimit:4;stroke-dasharray:none;stroke-dashoffset:0;stroke-opacity:1;color-rendering:auto;image-rendering:auto;shape-rendering:auto;text-rendering:auto;enable-background:accumulate"
       inkscape:export-filename="/home/karlisson/dev/acrilic/img/screen_bg.png"
       inkscape:export-xdpi="90"
       inkscape:export-ydpi="90" />
    <rect
       y="-278"
       x="-453.5"
       height="20"
       width="20"
       id="rect4199"
       style="color:#000000;clip-rule:nonzero;display:inline;overflow:visible;visibility:visible;opacity:1;isolation:auto;mix-blend-mode:normal;color-interpolation:sRGB;color-interpolation-filters:linearRGB;solid-color:#000000;solid-opacity:1;fill:#f2f2f2;fill-opacity:1;fill-rule:evenodd;stroke:none;stroke-width:1;stroke-linecap:round;stroke-linejoin:round;stroke-miterlimit:4;stroke-dasharray:none;stroke-dashoffset:0;stroke-opacity:1;color-rendering:auto;image-rendering:auto;shape-rendering:auto;text-rendering:auto;enable-background:accumulate"
       transform="scale(-1,1)"
       inkscape:export-filename="/home/karlisson/dev/acrilic/img/screen_bg.png"
       inkscape:export-xdpi="90"
       inkscape:export-ydpi="90" />
    <rect
       style="color:#000000;clip-rule:nonzero;display:inline;overflow:visible;visibility:visible;opacity:1;isolation:auto;mix-blend-mode:normal;color-interpolation:sRGB;color-interpolation-filters:linearRGB;solid-color:#000000;solid-opacity:1;fill:#e6e6e6;fill-opacity:1;fill-rule:evenodd;stroke:none;stroke-width:1;stroke-linecap:round;stroke-linejoin:round;stroke-miterlimit:4;stroke-dasharray:none;stroke-dashoffset:0;stroke-opacity:1;color-rendering:auto;image-rendering:auto;shape-rendering:auto;text-rendering:auto;enable-background:accumulate"
       id="rect4201"
       width="20"
       height="20"
       x="-433.5"
       y="-278"
       transform="scale(-1,1)"
       inkscape:export-filename="/home/karlisson/dev/acrilic/img/screen_bg.png"
       inkscape:export-xdpi="90"
       inkscape:export-ydpi="90" />
  </g>
</svg>
